<svg xmlns="http://www.w3.org/2000/svg" width="15" height="11.659" viewBox="0 0 15 11.659">
  <path id="Check" d="M224.45,24.384l.126.169.084.147.041.188.022.167-.022.212-.041.167-.084.169-.126.126-7,7.122-1.323,1.323L216,34.3l-.169.084-.167.041-.191.022-.188-.022-.169-.041-.145-.084-.147-.126L213.5,32.851,210,29.278l-.1-.126-.084-.167-.063-.169-.022-.21.022-.169.063-.188.084-.147.1-.147,1.325-1.345.126-.126.167-.084.169-.041.188-.022.191.022.167.041.147.084.147.126,2.856,2.9,6.345-6.449.147-.126.169-.084.147-.063h.377l.191.063.147.084.145.126Z" transform="translate(-209.723 -22.788)" fill="#00ff00" fill-rule="evenodd"/>
</svg>
