<svg xmlns="http://www.w3.org/2000/svg" width="18" height="18" viewBox="0 0 18 18">
  <g id="mute" transform="translate(-589 -49)">
    <g id="Group_4298" data-name="Group 4298" transform="translate(-1141.994 -2153)">
      <g id="Path_2215" data-name="Path 2215" transform="translate(1486.363 2023.72)" fill="#ff0000" fill-rule="evenodd">
        <path d="M 253.6510314941406 194.6613159179688 L 253.6224365234375 194.6596832275391 L 253.2752075195312 194.6398468017578 L 252.9279174804688 194.6200103759766 L 252.9150085449219 194.6192626953125 L 252.9021301269531 194.6178588867188 L 252.5568389892578 194.5801391601562 L 252.5261688232422 194.5767822265625 L 252.4961395263672 194.5697021484375 L 252.1686706542969 194.4923095703125 L 251.8412628173828 194.4149017333984 L 251.828857421875 194.4119720458984 L 251.8166198730469 194.4084167480469 L 251.4891967773438 194.3131713867188 L 251.4698486328125 194.3075408935547 L 251.4510192871094 194.3003692626953 L 251.1434326171875 194.1833038330078 L 251.1382598876953 194.1813507080078 L 251.1331481933594 194.1792602539062 L 250.8057250976562 194.0462951660156 L 250.79931640625 194.0436859130859 L 250.7929840087891 194.0409240722656 L 250.4853668212891 193.9059600830078 L 250.4738464355469 193.9009094238281 L 250.4626159667969 193.8952941894531 L 250.153076171875 193.7405090332031 L 250.1463928222656 193.7371826171875 L 250.1398162841797 193.733642578125 L 249.8520660400391 193.5788421630859 L 249.8316192626953 193.5678405761719 L 249.8122711181641 193.5549926757812 L 249.5225372314453 193.3625335693359 L 249.518798828125 193.3600311279297 L 249.5150909423828 193.3574829101562 L 249.2650909423828 193.1848297119141 L 249.2363128662109 193.1649627685547 L 249.2105712890625 193.1412811279297 L 248.9766540527344 192.9259490966797 L 248.7440795898438 192.7469024658203 L 248.7175598144531 192.7265014648438 L 248.6940155029297 192.7027435302734 L 248.4638519287109 192.4705810546875 L 248.4502563476562 192.4568786621094 L 248.4377746582031 192.4421691894531 L 248.2322235107422 192.2000732421875 L 248.0267486572266 191.9773254394531 L 248.0134429931641 191.962890625 L 248.0012969970703 191.9474639892578 L 247.7889862060547 191.6775817871094 L 247.77392578125 191.6584320068359 L 247.7607879638672 191.6378936767578 L 247.594970703125 191.3787078857422 L 247.4097595214844 191.1190948486328 L 247.3874206542969 191.0877838134766 L 247.3701171875 191.0534057617188 L 247.2153625488281 190.7457885742188 L 247.0614471435547 190.4360046386719 L 247.0536499023438 190.4202880859375 L 247.0469512939453 190.404052734375 L 246.9142150878906 190.0819549560547 L 246.7814788818359 189.7794342041016 L 246.7738952636719 189.7621612548828 L 246.7676391601562 189.7443695068359 L 246.6524963378906 189.4169158935547 L 246.6426239013672 189.3888092041016 L 246.6361389160156 189.3597412109375 L 246.5594329833984 189.0152740478516 L 246.4828338623047 188.6914520263672 L 246.4821472167969 188.6885528564453 L 246.4814910888672 188.6856231689453 L 246.4041595458984 188.3403472900391 L 246.3980255126953 188.3129730224609 L 246.3949890136719 188.2850646972656 L 246.3572692871094 187.9377746582031 L 246.3559875488281 187.9259185791016 L 246.3552703857422 187.9140167236328 L 246.3354339599609 187.5866241455078 L 246.3172912597656 187.2348327636719 L 246.3159637451172 187.2090301513672 L 246.3173065185547 187.1832427978516 L 246.3351898193359 186.8379821777344 L 246.3551635742188 186.488037109375 L 246.3558959960938 186.4751129150391 L 246.3573150634766 186.4622344970703 L 246.3950347900391 186.116943359375 L 246.3980255126953 186.0894927978516 L 246.4040222167969 186.0625610351562 L 246.4813537597656 185.7153015136719 L 246.4820709228516 185.7120819091797 L 246.4828338623047 185.7088623046875 L 246.5596008300781 185.3843536376953 L 246.6361541748047 185.0406341552734 L 246.6426239013672 185.0115814208984 L 246.6524963378906 184.9834899902344 L 246.7676391601562 184.6559906005859 L 246.7738952636719 184.6381988525391 L 246.7814788818359 184.6209259033203 L 246.9140930175781 184.3186950683594 L 247.0469512939453 183.9963226318359 L 247.0562286376953 183.9738464355469 L 247.067626953125 183.9523620605469 L 247.2179718017578 183.6692504882812 L 247.3701171875 183.3667907714844 L 247.3836669921875 183.3398742675781 L 247.4003448486328 183.3147735595703 L 247.5904998779297 183.0286102294922 L 247.7608032226562 182.762451171875 L 247.7789764404297 182.7340393066406 L 247.8007965087891 182.7083282470703 L 248.0131072998047 182.458251953125 L 248.2255249023438 182.2081756591797 L 248.4377746582031 181.9581909179688 L 248.4574890136719 181.9349517822266 L 248.4798889160156 181.914306640625 L 248.7100372314453 181.7019653320312 L 248.7176208496094 181.6949768066406 L 248.7254791259766 181.6882934570312 L 248.9755554199219 181.4759826660156 L 249.2273406982422 181.26416015625 L 249.2445068359375 181.2497253417969 L 249.2629089355469 181.2368774414062 L 249.5129089355469 181.062255859375 L 249.5176696777344 181.0589294433594 L 249.5225067138672 181.0557098388672 L 249.8122406005859 180.8632049560547 L 249.8327484130859 180.8495788574219 L 249.8544769287109 180.8380432128906 L 250.1365203857422 180.6883087158203 L 250.4405517578125 180.5167846679688 L 250.4635772705078 180.5037994384766 L 250.4878692626953 180.4933013916016 L 250.7954864501953 180.3603515625 L 250.7994079589844 180.358642578125 L 250.8033599853516 180.3570098876953 L 251.1307678222656 180.2220916748047 L 251.1503448486328 180.2140350341797 L 251.1705322265625 180.2076416015625 L 251.4781188964844 180.1103820800781 L 251.483642578125 180.108642578125 L 251.4892120361328 180.1070251464844 L 251.8166351318359 180.0117797851562 L 252.1413269042969 179.9153442382812 L 252.1688385009766 179.9071807861328 L 252.1971130371094 179.9022064208984 L 252.5245666503906 179.8446502685547 L 252.5406341552734 179.8418273925781 L 252.5568389892578 179.8400573730469 L 252.9021301269531 179.8023376464844 L 252.9150085449219 179.8009338378906 L 252.9279174804688 179.8001861572266 L 253.2752075195312 179.7803497314453 L 253.2894592285156 179.779541015625 L 253.3037261962891 179.779541015625 L 253.6509552001953 179.779541015625 L 253.9962310791016 179.779541015625 L 254.0113677978516 179.779541015625 L 254.0264739990234 179.7804565429688 L 254.3538665771484 179.80029296875 L 254.3657684326172 179.8010101318359 L 254.3776092529297 179.8022918701172 L 254.7249298095703 179.8400115966797 L 254.7413024902344 179.841796875 L 254.7575225830078 179.8446502685547 L 255.0849151611328 179.9022064208984 L 255.1131591796875 179.9071807861328 L 255.1406402587891 179.9153289794922 L 255.4681396484375 180.0125732421875 L 255.7928771972656 180.1070251464844 L 256.121826171875 180.205322265625 L 256.1507263183594 180.2139739990234 L 256.1784057617188 180.2260131835938 L 256.4880065917969 180.3609313964844 L 256.7942199707031 180.4933166503906 L 256.8191223144531 180.5040740966797 L 256.8427124023438 180.5174713134766 L 257.1502685546875 180.6920928955078 L 257.4195861816406 180.8445434570312 L 257.435791015625 180.8537139892578 L 257.4512939453125 180.8640747070312 L 257.7390747070312 181.0565795898438 L 257.7424621582031 181.0588531494141 L 257.7458190917969 181.0611877441406 L 257.9978332519531 181.2358093261719 L 258.01708984375 181.2491302490234 L 258.0350036621094 181.2642059326172 L 258.2786254882812 181.4692077636719 L 258.5421142578125 181.6764678955078 L 258.5575256347656 181.6886138916016 L 258.5719604492188 181.7019195556641 L 258.8021850585938 181.9142608642578 L 258.8246154785156 181.9349517822266 L 258.8443603515625 181.9582214355469 L 259.056640625 182.2082824707031 L 259.2684326171875 182.4598999023438 L 259.2754516601562 182.46826171875 L 259.2821044921875 182.4769287109375 L 259.4745483398438 182.7269897460938 L 259.4800720214844 182.7341461181641 L 259.4852905273438 182.7415008544922 L 259.6778869628906 183.0113525390625 L 259.6891479492188 183.0271606445312 L 259.6991882324219 183.0438079833984 L 259.8736877441406 183.3335113525391 L 259.8776245117188 183.3400726318359 L 259.8813781738281 183.3467559814453 L 260.0540466308594 183.6543731689453 L 260.06298828125 183.6702728271484 L 260.0707397460938 183.6868133544922 L 260.2056884765625 183.9745635986328 L 260.3598327636719 184.300537109375 L 260.3687744140625 184.3194274902344 L 260.3760986328125 184.3390045166016 L 260.4912109375 184.6465606689453 L 260.4929809570312 184.6512756347656 L 260.4946594238281 184.6560363769531 L 260.6097717285156 184.9835205078125 L 260.6156311035156 185.0001678466797 L 260.6202697753906 185.0171813964844 L 260.7154235839844 185.3644104003906 L 260.7177734375 185.3728942871094 L 260.7197875976562 185.3814392089844 L 260.7972412109375 185.7088623046875 L 260.8011779785156 185.7254791259766 L 260.803955078125 185.7423095703125 L 260.8614501953125 186.0895690917969 L 260.8634643554688 186.1017913818359 L 260.8648986816406 186.1140899658203 L 260.9046020507812 186.4593811035156 L 260.9064331054688 186.4751129150391 L 260.9072265625 186.4909057617188 L 260.925048828125 186.8382263183594 L 260.9447326660156 187.1804351806641 L 260.9463806152344 187.2090301513672 L 260.9447326660156 187.2376098632812 L 260.9249267578125 187.5848999023438 L 260.9071655273438 187.9109802246094 L 260.9063415527344 187.9258422851562 L 260.9046630859375 187.9406127929688 L 260.8649291992188 188.2879028320312 L 260.8634643554688 188.3005981445312 L 260.8613586425781 188.3132019042969 L 260.8038940429688 188.6584777832031 L 260.8011169433594 188.6750793457031 L 260.7972412109375 188.6914520263672 L 260.7197875976562 189.0189056396484 L 260.7177734375 189.0274505615234 L 260.7154541015625 189.0359344482422 L 260.6203002929688 189.3831939697266 L 260.6156311035156 189.4002227783203 L 260.6097717285156 189.4168853759766 L 260.4946594238281 189.7443389892578 L 260.4929809570312 189.7490844726562 L 260.4912109375 189.7537994384766 L 260.3760986328125 190.0613555908203 L 260.3687744140625 190.0809326171875 L 260.3598327636719 190.0998229980469 L 260.2080688476562 190.4208068847656 L 260.0758972167969 190.7220001220703 L 260.0660400390625 190.7444458007812 L 260.0540466308594 190.7658233642578 L 259.8813781738281 191.0734405517578 L 259.8737182617188 191.0870819091797 L 259.865234375 191.1002197265625 L 259.6907348632812 191.3700561523438 L 259.6845092773438 191.3796539306641 L 259.6778869628906 191.3889312744141 L 259.4853210449219 191.6588439941406 L 259.29296875 191.9286041259766 L 259.2753601074219 191.9532623291016 L 259.2549438476562 191.9756317138672 L 259.0506591796875 192.1991119384766 L 258.8443603515625 192.442138671875 L 258.8318481445312 192.4568939208984 L 258.8182373046875 192.4706268310547 L 258.5880126953125 192.7027740478516 L 258.5580139160156 192.7330322265625 L 258.5233154296875 192.7577667236328 L 258.2788696289062 192.93212890625 L 258.0517578125 193.1412353515625 L 258.0252990722656 193.1655883789062 L 257.9956665039062 193.1858978271484 L 257.74365234375 193.3585357666016 L 257.7413330078125 193.3601226806641 L 257.7390441894531 193.3616638183594 L 257.4512634277344 193.5541229248047 L 257.4369506835938 193.5636901855469 L 257.4220275878906 193.5722503662109 L 257.1521301269531 193.7270355224609 L 257.1403198242188 193.7338104248047 L 257.1281433105469 193.7399291992188 L 256.8205871582031 193.8947143554688 L 256.8088073730469 193.9006500244141 L 256.7967224121094 193.9059448242188 L 256.4891967773438 194.0408935546875 L 256.1759643554688 194.1754302978516 L 256.1620788574219 194.1813812255859 L 256.1478881835938 194.1864929199219 L 255.8224487304688 194.3035583496094 L 255.8078155517578 194.3088226318359 L 255.7928924560547 194.3131561279297 L 255.4654998779297 194.4084014892578 L 255.4532470703125 194.4119720458984 L 255.4408111572266 194.4149169921875 L 255.1133270263672 194.4923095703125 L 254.7859649658203 194.5696868896484 L 254.7557678222656 194.5768280029297 L 254.7249298095703 194.5801696777344 L 254.3776092529297 194.6178894042969 L 254.3657684326172 194.6191711425781 L 254.3538665771484 194.6199035644531 L 254.0264739990234 194.6397399902344 L 253.6796264648438 194.6596832275391 L 253.6510314941406 194.6613159179688 Z M 253.3245239257812 191.6200256347656 L 253.6440277099609 191.6372985839844 L 254.0528564453125 191.6037902832031 L 254.5120544433594 191.5330047607422 L 254.9043121337891 191.4309692382812 L 255.3172302246094 191.2750244140625 L 255.6917419433594 191.0868988037109 L 256.0470275878906 190.8561401367188 L 256.3946533203125 190.6142425537109 L 256.6791381835938 190.3452606201172 L 256.9588928222656 190.03125 L 257.2138671875 189.6924591064453 L 257.4223937988281 189.3076934814453 L 257.6192626953125 188.9158630371094 L 257.7725219726562 188.5054016113281 L 257.8731689453125 188.1011199951172 L 257.9277954101562 187.6422271728516 L 257.9621276855469 187.2030944824219 L 257.9448547363281 186.8846893310547 L 257.9100952148438 186.5647888183594 L 257.8576965332031 186.2500762939453 L 257.7902221679688 185.9648742675781 L 257.6882934570312 185.6748046875 L 257.5655822753906 185.3770599365234 L 257.5654602050781 185.3768310546875 L 251.8248291015625 191.2149353027344 L 251.8536682128906 191.2294464111328 L 252.1201629638672 191.3635101318359 L 252.4017791748047 191.4454498291016 L 252.7220611572266 191.5351257324219 L 253.0091094970703 191.5855712890625 L 253.3245239257812 191.6200256347656 Z M 249.57568359375 188.7458343505859 L 249.7135009765625 189.0373840332031 L 249.7228546142578 189.0574188232422 L 255.4963684082031 183.2172546386719 L 255.4588012695312 183.1974487304688 L 255.1653289794922 183.0765075683594 L 254.8620910644531 182.9699249267578 L 254.5762329101562 182.8850402832031 L 254.2613067626953 182.8325500488281 L 253.9725036621094 182.7817993164062 L 253.6509857177734 182.7817993164062 L 253.3523254394531 182.7817993164062 L 253.0707855224609 182.8142242431641 L 252.7920379638672 182.8663940429688 L 252.4984893798828 182.935791015625 L 252.2304992675781 183.0257110595703 L 251.9683990478516 183.1125183105469 L 251.7242584228516 183.2261505126953 L 251.4833526611328 183.3643341064453 L 251.2310485839844 183.5257415771484 L 251.0100250244141 183.6783447265625 L 250.7662506103516 183.8881072998047 L 250.5771331787109 184.0611419677734 L 250.3923797607422 184.2614288330078 L 250.2017669677734 184.503662109375 L 250.0430603027344 184.7335510253906 L 249.8927764892578 184.9684753417969 L 249.7717590332031 185.2265930175781 L 249.6455230712891 185.4976348876953 L 249.5402679443359 185.7787628173828 L 249.4539489746094 186.0359802246094 L 249.3876953125 186.3316955566406 L 249.3529663085938 186.61669921875 L 249.3171691894531 186.9257354736328 L 249.2999114990234 187.2099914550781 L 249.3173675537109 187.5149536132812 L 249.3522033691406 187.8356170654297 L 249.4029541015625 188.1400451660156 L 249.4923095703125 188.4592437744141 L 249.57568359375 188.7458343505859 Z" stroke="none"/>
        <path d="M 253.3037261962891 180.279541015625 L 252.9564361572266 180.2993774414062 L 252.6111297607422 180.3370971679688 L 252.2836761474609 180.3946533203125 L 251.6288604736328 180.5871276855469 L 251.3212738037109 180.6843872070312 L 250.9938354492188 180.8193054199219 L 250.6862182617188 180.9522705078125 L 250.376708984375 181.1268920898438 L 250.0889282226562 181.2796630859375 L 249.7991943359375 181.47216796875 L 249.5491943359375 181.6467895507812 L 249.049072265625 182.0694580078125 L 248.8189086914062 182.2817993164062 L 248.1819458007812 183.0319213867188 L 248.00927734375 183.3017883300781 L 247.8167724609375 183.5914916992188 L 247.6620483398438 183.8991088867188 L 247.5092163085938 184.1868591308594 L 247.374267578125 184.5142822265625 L 247.2393188476562 184.8218383789062 L 247.1242065429688 185.1493225097656 L 247.046875 185.4965515136719 L 246.9694213867188 185.823974609375 L 246.89208984375 186.1712341308594 L 246.8543701171875 186.5165405273438 L 246.816650390625 187.2091064453125 L 246.8345336914062 187.556396484375 L 246.8543701171875 187.8837890625 L 246.89208984375 188.2310791015625 L 246.9694213867188 188.5763549804688 L 247.046875 188.90380859375 L 247.1242065429688 189.2510681152344 L 247.2393188476562 189.5785217285156 L 247.374267578125 189.8860778808594 L 247.5092163085938 190.2135314941406 L 247.8167724609375 190.8287048339844 L 248.00927734375 191.0985412597656 L 248.1819458007812 191.3684387207031 L 248.394287109375 191.6383056640625 L 248.6066284179688 191.8684997558594 L 248.8189086914062 192.1185607910156 L 249.049072265625 192.3507080078125 L 249.2991333007812 192.543212890625 L 249.5491943359375 192.7734069824219 L 249.7991943359375 192.946044921875 L 250.0889282226562 193.1385192871094 L 250.376708984375 193.2933044433594 L 250.6862182617188 193.4480895996094 L 250.9938354492188 193.5830383300781 L 251.3212738037109 193.7160034179688 L 251.6288604736328 193.8330688476562 L 251.9562835693359 193.9283142089844 L 252.6111297607422 194.0830993652344 L 252.9564361572266 194.1208190917969 L 253.6509552001953 194.1604919433594 L 254.3236236572266 194.1208190917969 L 254.6709442138672 194.0830993652344 L 255.3258209228516 193.9283142089844 L 255.6532135009766 193.8330688476562 L 255.9786529541016 193.7160034179688 L 256.2882690429688 193.5830383300781 L 256.5958251953125 193.4480895996094 L 256.9033813476562 193.2933044433594 L 257.1732788085938 193.1385192871094 L 257.4610595703125 192.946044921875 L 257.7130737304688 192.7734069824219 L 257.9630737304688 192.543212890625 L 258.2329711914062 192.3507080078125 L 258.4631958007812 192.1185607910156 L 258.6754760742188 191.8684997558594 L 258.8858642578125 191.6383056640625 L 259.2708740234375 191.0985412597656 L 259.4453735351562 190.8287048339844 L 259.6180419921875 190.5210876464844 L 259.7529907226562 190.2135314941406 L 259.9078369140625 189.8860778808594 L 260.02294921875 189.5785217285156 L 260.1380615234375 189.2510681152344 L 260.2332153320312 188.90380859375 L 260.3106689453125 188.5763549804688 L 260.3681640625 188.2310791015625 L 260.4078979492188 187.8837890625 L 260.445556640625 187.2091064453125 L 260.4078979492188 186.5165405273438 L 260.3681640625 186.1712341308594 L 260.3106689453125 185.823974609375 L 260.2332153320312 185.4965515136719 L 260.1380615234375 185.1493225097656 L 260.02294921875 184.8218383789062 L 259.9078369140625 184.5142822265625 L 259.6180419921875 183.8991088867188 L 259.4453735351562 183.5914916992188 L 259.2708740234375 183.3017883300781 L 259.0783081054688 183.0319213867188 L 258.8858642578125 182.7818603515625 L 258.4631958007812 182.2817993164062 L 258.2329711914062 182.0694580078125 L 257.9630737304688 181.8571472167969 L 257.7130737304688 181.6467895507812 L 257.4610595703125 181.47216796875 L 257.1732788085938 181.2796630859375 L 256.5958251953125 180.9522705078125 L 255.9786529541016 180.6843872070312 L 254.9983367919922 180.3946533203125 L 254.6709442138672 180.3370971679688 L 254.3236236572266 180.2993774414062 L 253.9962310791016 180.279541015625 L 253.3037261962891 180.279541015625 M 249.6067504882812 189.8860778808594 L 249.4142456054688 189.5785217285156 L 249.106689453125 188.9236145019531 L 249.0114135742188 188.5962219238281 L 248.9141845703125 188.2489318847656 L 248.8566284179688 187.9036560058594 L 248.8189086914062 187.556396484375 L 248.799072265625 187.2091064453125 L 248.8189086914062 186.8816833496094 L 248.8943481445312 186.2466430664062 L 248.9717407226562 185.9013671875 L 249.0689697265625 185.6116333007812 L 249.18408203125 185.3040771484375 L 249.4539184570312 184.7266235351562 L 249.6265869140625 184.4567260742188 L 249.7992553710938 184.2066650390625 L 250.0115966796875 183.9367980957031 L 250.2239379882812 183.7066040039062 L 250.4342651367188 183.5141296386719 L 250.7041015625 183.2819519042969 L 250.9541625976562 183.1093139648438 L 251.2240600585938 182.9366455078125 L 251.4939117431641 182.7818603515625 L 251.7837066650391 182.64697265625 L 252.3611602783203 182.4544677734375 L 252.6885528564453 182.3770751953125 L 252.9961090087891 182.3195190429688 L 253.3235931396484 182.2817993164062 L 254.0161285400391 182.2817993164062 L 254.3435211181641 182.33935546875 L 254.6888580322266 182.3969116210938 L 255.0162506103516 182.494140625 L 255.3437042236328 182.6092224121094 L 255.6710968017578 182.744140625 L 255.9985504150391 182.9168090820312 L 256.30615234375 183.1093139648438 L 249.6067504882812 189.8860778808594 M 253.6509857177734 192.1383972167969 L 253.2838897705078 192.1185607910156 L 252.9385528564453 192.0808410644531 L 252.6111297607422 192.0232849121094 L 252.2638702392578 191.9260559082031 L 251.9364776611328 191.830810546875 L 251.3213043212891 191.521240234375 L 251.01171875 191.3287353515625 L 257.67333984375 184.5539855957031 L 257.8658447265625 184.861572265625 L 258.0206909179688 185.1691284179688 L 258.1556396484375 185.4965515136719 L 258.2706909179688 185.823974609375 L 258.34814453125 186.1514282226562 L 258.4056396484375 186.4967041015625 L 258.443359375 186.8439636230469 L 258.4631958007812 187.2091064453125 L 258.4254760742188 187.6913146972656 L 258.365966796875 188.1913757324219 L 258.2508544921875 188.6537475585938 L 258.0781860351562 189.1161499023438 L 257.8658447265625 189.538818359375 L 257.6356811523438 189.9634704589844 L 257.345947265625 190.3484497070312 L 257.038330078125 190.6937561035156 L 256.7109375 191.0032958984375 L 256.325927734375 191.2712097167969 L 255.9409637451172 191.521240234375 L 255.5183258056641 191.7335510253906 L 255.0559234619141 191.9081726074219 L 254.6134185791016 192.0232849121094 L 254.1114044189453 192.1006774902344 L 253.6509857177734 192.1383972167969 M 253.2751770019531 179.279541015625 L 254.0567169189453 179.2813720703125 L 254.4315948486328 179.3052215576172 L 254.8441009521484 179.3522033691406 L 255.2279663085938 179.4196929931641 L 256.3228149414062 179.7435302734375 L 257.0424194335938 180.0558929443359 L 257.6983032226562 180.4277496337891 L 258.0306091308594 180.6502075195312 L 258.3211059570312 180.8514862060547 L 258.5943603515625 181.0814208984375 L 258.882080078125 181.3077545166016 L 259.18603515625 181.5880889892578 L 259.6783447265625 182.1719818115234 L 259.892333984375 182.4510650634766 L 260.107421875 182.7525634765625 L 260.3173828125 183.1020202636719 L 260.5079345703125 183.4414520263672 L 260.8297119140625 184.1245727539062 L 260.9663696289062 184.490234375 L 261.1025085449219 184.8850402832031 L 261.2063598632812 185.2663269042969 L 261.2972412109375 185.66064453125 L 261.3616333007812 186.0569305419922 L 261.4065551757812 186.4652709960938 L 261.4472045898438 187.2089385986328 L 261.4014282226562 187.9974517822266 L 261.3545837402344 188.3953094482422 L 261.2838134765625 188.8065490722656 L 261.1976623535156 189.1680603027344 L 261.0814819335938 189.5827026367188 L 260.95947265625 189.9290924072266 L 260.8297119140625 190.2757720947266 L 260.6631469726562 190.6280364990234 L 260.5140686035156 190.9678039550781 L 260.2850952148438 191.3717498779297 L 260.0848999023438 191.6793518066406 L 259.6648864746094 192.2682189941406 L 259.4259948730469 192.5296020507812 L 259.2005004882812 192.7952270507812 L 258.8830261230469 193.1153564453125 L 258.5945129394531 193.3211517333984 L 258.3375244140625 193.5577545166016 L 258.0169982910156 193.7772827148438 L 257.6707763671875 194.0059814453125 L 257.3529052734375 194.1865692138672 L 256.9976196289062 194.3638000488281 L 256.682861328125 194.5018920898438 L 256.317138671875 194.656982421875 L 255.9325561523438 194.7932586669922 L 255.5558013916016 194.9015197753906 L 254.8406066894531 195.0705413818359 L 254.3841094970703 195.1189880371094 L 253.6511077880859 195.1621398925781 L 252.8478393554688 195.1149139404297 L 252.4411926269531 195.0704803466797 L 251.6769561767578 194.8885040283203 L 251.3108367919922 194.7820129394531 L 250.9450378417969 194.6425323486328 L 250.5921020507812 194.4987945556641 L 250.2389221191406 194.3424835205078 L 249.9030151367188 194.1739959716797 L 249.5743103027344 193.9971923828125 L 249.23095703125 193.7689056396484 L 248.9234008789062 193.5565185546875 L 248.6542358398438 193.3087463378906 L 248.3860473632812 193.1022796630859 L 248.0815734863281 192.7951812744141 L 247.8575744628906 192.5313110351562 L 247.6326599121094 192.2874908447266 L 247.3658752441406 191.9484405517578 L 247.1805725097656 191.6588134765625 L 246.9580078125 191.3468170166016 L 246.5980529785156 190.6270599365234 L 246.4540100097656 190.2775726318359 L 246.3084411621094 189.9457702636719 L 246.1610412597656 189.5265502929688 L 246.0722351074219 189.1276550292969 L 245.9935913085938 188.7949066162109 L 245.9039916992188 188.3948516845703 L 245.856201171875 187.9442749023438 L 245.8358459472656 187.6078186035156 L 245.8153381347656 187.2089538574219 L 245.8602905273438 186.4079437255859 L 245.9039916992188 186.0077667236328 L 245.9962768554688 185.5937805175781 L 246.0722045898438 185.2728118896484 L 246.1610412597656 184.8738403320312 L 246.3084106445312 184.4546051025391 L 246.4540405273438 184.1227264404297 L 246.6032104492188 183.7607879638672 L 246.773681640625 183.4398498535156 L 246.9505004882812 183.0882720947266 L 247.171630859375 182.7554779052734 L 247.3760070800781 182.4360961914062 L 248.0960388183594 181.5881500244141 L 248.40185546875 181.3071594238281 L 248.9397888183594 180.8526611328125 L 249.2457885742188 180.6392517089844 L 249.5765380859375 180.4194946289062 L 249.8965148925781 180.2496337890625 L 250.2409057617188 180.0553436279297 L 250.6128540039062 179.8947143554688 L 250.9794311523438 179.7436828613281 L 251.3495635986328 179.6269226074219 L 252.0540161132812 179.4196929931641 L 252.5025482177734 179.3430023193359 L 252.8993988037109 179.3010101318359 L 253.2751770019531 179.279541015625 Z M 253.9289093017578 183.2817993164062 L 253.3809814453125 183.2817993164062 L 253.1454620361328 183.3089294433594 L 252.8957214355469 183.3556671142578 L 252.6358032226562 183.4170989990234 L 252.1531372070312 183.5780487060547 L 251.9544830322266 183.6705017089844 L 251.7426147460938 183.7920379638672 L 251.5080261230469 183.9421081542969 L 251.3159942626953 184.0746917724609 L 251.0981140136719 184.2621612548828 L 250.9302368164062 184.4157867431641 L 250.7732238769531 184.5859985351562 L 250.6044311523438 184.8005218505859 L 250.45947265625 185.0104522705078 L 250.3315734863281 185.2103424072266 L 250.1069946289062 185.6910552978516 L 250.0115966796875 185.9459533691406 L 249.9362182617188 186.1705474853516 L 249.8810119628906 186.4168701171875 L 249.8154296875 186.9694366455078 L 249.8008117675781 187.2108612060547 L 249.8158264160156 187.4737091064453 L 249.8477172851562 187.7673797607422 L 249.8917236328125 188.0313262939453 L 249.9231567382812 188.1436309814453 L 254.5993041992188 183.4134826660156 L 254.4634857177734 183.3731384277344 L 253.9289093017578 183.2817993164062 Z M 257.3672485351562 186.3488006591797 L 257.3563232421875 186.3026733398438 L 252.7218627929688 191.0158233642578 L 252.8330993652344 191.0469665527344 L 253.0794830322266 191.0902862548828 L 253.3653106689453 191.1215057373047 L 253.6370697021484 191.1361846923828 L 253.9941711425781 191.10693359375 L 254.410888671875 191.0426940917969 L 254.7525329589844 190.9538116455078 L 255.1161041259766 190.8165130615234 L 255.4426574707031 190.6524658203125 L 255.7677917480469 190.4412994384766 L 256.0783081054688 190.2252044677734 L 256.3201904296875 189.9965362548828 L 256.57177734375 189.7141265869141 L 256.7919311523438 189.4215698242188 L 256.979248046875 189.0760498046875 L 257.1603393554688 188.7155609130859 L 257.294189453125 188.3571014404297 L 257.3804016113281 188.0107727050781 L 257.4301147460938 187.5931549072266 L 257.4610595703125 187.1972198486328 L 257.4462890625 186.9250640869141 L 257.4145812988281 186.633056640625 L 257.3672485351562 186.3488006591797 Z" stroke="none" fill="#493030"/>
      </g>
    </g>
    <rect id="iconBase" width="18" height="18" transform="translate(589 49)" fill="none"/>
  </g>
</svg>
