<svg id="add_dark" xmlns="http://www.w3.org/2000/svg" width="18" height="18" viewBox="0 0 18 18">
  <rect id="iconBase" width="18" height="18" fill="none"/>
  <path id="Add" d="M52.605,26.211V28.1l-.02.212-.067.171-.084.169-.109.127-.151.129L52,28.992l-.173.066-.193.02h-4.12V33.2l-.022.193-.042.169-.109.171-.129.127-.129.127-.173.107-.151.042-.216.022h-1.9l-.193-.022-.171-.042-.151-.107-.173-.127-.109-.127-.084-.171-.044-.169L43.7,33.2V29.078H39.555l-.173-.02-.193-.066-.151-.083-.151-.129-.129-.127-.064-.169-.064-.171-.022-.212v-1.89l.022-.193.064-.169.064-.171.129-.149.151-.105.151-.107.193-.042.173-.022H43.7V21.111l.02-.191.044-.171.084-.169.109-.149.173-.107.151-.083.171-.066.193-.02h1.9l.216.02.151.066.173.083.129.107.129.149.109.169.042.171.022.191v4.143h4.12l.193.022.173.042.171.107.151.105.109.149.084.171.067.169.02.193Z" transform="translate(-36.605 -18.156)" fill="#ffffff" fill-rule="evenodd"/>
</svg>
