<svg id="refresh_dark" xmlns="http://www.w3.org/2000/svg" width="255" height="255" viewBox="2 2 13 14.5">
  <rect id="iconBase" width="18" height="18" fill="none"/>
  <path id="Refresh" d="M360.962,28.618v.059l-.154.6-.195.543-.252.546-.293.506-.311.49-.351.447-.406.427-.43.389-.468.367-.49.291-.505.273-.525.195-.546.175-.563.122-.584.06-.6.038-.331-.02-.33-.018-.331-.04-.311-.038-.311-.078-.313-.1-.311-.1-.311-.122-.293-.136-.291-.136-.273-.157-.273-.175-.291-.195-.252-.195-.252-.214-.235-.213-1.167,1.166-.1.076-.078.06-.122.018-.122.02-.1-.02-.122-.018-.1-.06-.078-.076-.078-.078-.059-.122-.038-.122V28.773l.038-.1.059-.1.078-.1.078-.078.1-.038.122-.04h4.22l.122.04.078.038.1.078.078.1.059.1.04.1.02.122-.02.136-.04.1-.059.1-.078.1-1.224,1.245.33.273.351.252.389.214.367.175.409.157.427.076.43.078.409.02.311-.02.29-.02.293-.059.273-.038.27-.1.273-.1.273-.122.273-.136.252-.176.233-.154.235-.195.214-.175.195-.214.195-.235.175-.233.175-.252.02-.04.038-.076.04-.1.058-.122.058-.157.078-.175.078-.195.076-.214.059-.1.06-.059.076-.04h1.81l.122.02.038.02.059.038.058.1Zm.235-7.275v4.182l-.04.1-.059.1-.076.1-.078.078-.1.059-.122.038H356.5l-.116-.038-.1-.059-.078-.078-.078-.1-.058-.1-.038-.1v-.233l.038-.122.058-.1.078-.078,1.224-1.263-.329-.293-.351-.252-.367-.195L356,22.8l-.389-.122-.43-.122-.427-.059-.447-.02-.293.02-.293.018-.291.059-.273.059-.273.078-.271.1-.293.136-.252.122-.235.175-.252.157-.233.195-.214.195-.195.214-.195.213-.154.235-.176.252-.038.038-.04.078-.038.122-.038.1-.078.154-.078.176-.078.195-.078.213-.058.1-.058.059-.078.059h-1.867l-.122-.02-.04-.018-.059-.059-.059-.1v-.157l.157-.6.195-.565.252-.543.273-.506.33-.468.367-.468.389-.43.43-.367.49-.367.468-.293.525-.291.525-.195.544-.176.566-.122.584-.059.6-.038.329.018.33.02.313.04.33.059.329.076.313.078.311.1.311.136.293.122.291.154.293.157.271.175.273.176.273.213.252.195.235.214,1.167-1.166.078-.078.122-.059.1-.038h.214l.122.038.1.059.078.078.076.1.059.1.04.122Z" transform="translate(-345.756 -17.832)" fill="#fff" fill-rule="evenodd"/>
</svg>
